# xmcd
#
# Track frame offsets:
#	150
#	14703
#	23971
#	44576
#	62456
#	76982
#	94854
#	109484
#
# Disc length: 2237 seconds
#
# Revision: 0
# Processed by: cddbd v1.5.2PL0 Copyright (c) Steve Scherf et al.
# Submitted via: audiograbber 1.83.01
#
DISCID=6708bb08
DTITLE=Grant Peeples and the Peeples Republik - Settling Scores Vol. II
DYEAR=2018
DGENRE=Roots/Americana
TTITLE0=1Pitchfork and Torches
TTITLE1=2Dear Judas
TTITLE2=2Goodbye
TTITLE3=4This Could Be a Long Night
TTITLE4=5Liliana
TTITLE5=6The Black Dress
TTITLE6=7More for Us Less for Them
TTITLE7=8The New Brownsville Girl
EXTD=
EXTT0=
EXTT1=
EXTT2=
EXTT3=
EXTT4=
EXTT5=
EXTT6=
EXTT7=
PLAYORDER=
